Coordinates
version=1
nRows=24
nColumns=34
inDegrees=no

Units are S.I. units (second, meters, Newtons, ...)
If the header above contains a line with 'inDegrees', this indicates whether rotational values are in degrees (yes) or radians (no).

endheader
time	pelvis_tilt	pelvis_list	pelvis_rotation	pelvis_tx	pelvis_ty	pelvis_tz	hip_flexion_r	hip_adduction_r	hip_rotation_r	knee_angle_r	ankle_angle_r	subtalar_angle_r	mtp_angle_r	hip_flexion_l	hip_adduction_l	hip_rotation_l	knee_angle_l	ankle_angle_l	subtalar_angle_l	mtp_angle_l	lumbar_extension	lumbar_bending	lumbar_rotation	arm_flex_r	arm_add_r	arm_rot_r	elbow_flex_r	pro_sup_r	arm_flex_l	arm_add_l	arm_rot_l	elbow_flex_l	pro_sup_l
0	0.195081	-0.00150762	-0.0390141	-0.187792	1.0012	-0.290727	0.260319	0.00583886	-0.165818	0.12311	-0.0333743	0.0452927	-0.00316538	-0.588702	0.0199285	-0.350106	0.109069	0.290843	0.541386	-0.00384655	-0.437985	0.0642276	-0.0298749	-0.0437722	-0.180184	-0.301494	0.552921	2.16611	0.157803	-0.241448	0.0362433	1.19841	2.13932
0.01	0.197444	-0.0159058	-0.0366749	-0.17075	1.00603	-0.289348	0.255943	0.021844	-0.161632	0.142935	-0.0771788	0.00358537	-0.00317766	-0.595324	-0.0027783	-0.361001	0.138475	0.281995	0.533023	-0.00386076	-0.439368	0.0832015	-0.0277385	-0.0421268	-0.182433	-0.299257	0.549565	2.16595	0.142985	-0.232826	0.0303576	1.19044	2.14517
0.02	0.198189	-0.0295216	-0.0343582	-0.153865	1.01023	-0.287912	0.253657	0.036686	-0.158508	0.164679	-0.112677	-0.0337728	-0.00318995	-0.595924	-0.0257939	-0.368632	0.173439	0.265143	0.519086	-0.00387497	-0.438775	0.10123	-0.0259379	-0.0407762	-0.184277	-0.29775	0.547106	2.16586	0.127848	-0.224391	0.0247022	1.18006	2.14966
0.03	0.197305	-0.0423636	-0.0320658	-0.137156	1.01383	-0.286424	0.253421	0.0503907	-0.156407	0.18823	-0.139927	-0.0668153	-0.00320224	-0.590458	-0.0491339	-0.373013	0.213998	0.240304	0.499633	-0.00388918	-0.436212	0.118314	-0.0244661	-0.0397123	-0.185719	-0.296963	0.545552	2.16583	0.112412	-0.216158	0.0192958	1.16727	2.15277
0.04	0.194796	-0.0544629	-0.0297831	-0.120647	1.0169	-0.284882	0.255088	0.063038	-0.155247	0.213249	-0.159126	-0.0956438	-0.00321452	-0.578836	-0.0728485	-0.374169	0.260205	0.207561	0.474851	-0.00390339	-0.43171	0.134464	-0.0233133	-0.0389104	-0.186763	-0.29685	0.544918	2.16588	0.0967527	-0.208177	0.0141992	1.15209	2.1545
0.05	0.190707	-0.0658888	-0.0274496	-0.104367	1.01949	-0.283289	0.258357	0.0747769	-0.154925	0.239124	-0.170699	-0.120461	-0.00322681	-0.56098	-0.0970272	-0.372123	0.312058	0.16714	0.445134	-0.0039176	-0.425367	0.149726	-0.0224806	-0.0383249	-0.187425	-0.29732	0.545227	2.166	0.0810109	-0.200544	0.00953157	1.13456	2.15489
0.06	0.185158	-0.0767516	-0.0249354	-0.0883439	1.02164	-0.281655	0.262763	0.0858153	-0.155348	0.265004	-0.175339	-0.141593	-0.0032391	-0.536896	-0.121775	-0.366874	0.369395	0.119512	0.411114	-0.0039318	-0.417364	0.164184	-0.0219943	-0.0378887	-0.187734	-0.298217	0.546493	2.16619	0.0654034	-0.193397	0.00547335	1.11475	2.15402
0.07	0.178356	-0.0871859	-0.022037	-0.0726103	1.02344	-0.279989	0.267708	0.096384	-0.156461	0.289903	-0.173991	-0.159477	-0.00325139	-0.506746	-0.14716	-0.358395	0.431804	0.0654988	0.373656	-0.003946	-0.407974	0.177953	-0.0219103	-0.0375164	-0.187736	-0.299322	0.548708	2.16641	0.0502101	-0.186909	0.00225309	1.09276	2.15206
0.08	0.170594	-0.0973168	-0.0185012	-0.057193	1.02496	-0.278314	0.272534	0.106685	-0.158242	0.312856	-0.167776	-0.174628	-0.00326369	-0.470888	-0.173141	-0.346642	0.498562	0.00636179	0.333824	-0.0039602	-0.397555	0.191143	-0.0223051	-0.0371101	-0.187497	-0.300368	0.551828	2.16664	0.0357503	-0.181258	0.000117215	1.06873	2.14925
0.09	0.162239	-0.107215	-0.0140731	-0.0421131	1.02625	-0.276661	0.276595	0.116839	-0.160703	0.333061	-0.157877	-0.187557	-0.00327598	-0.429892	-0.199503	-0.331597	0.56864	-0.056136	0.292817	-0.0039744	-0.386521	0.203821	-0.0232517	-0.036566	-0.187099	-0.301066	0.55576	2.16682	0.0223484	-0.176603	-0.000712636	1.04282	2.14594
0.1	0.153712	-0.116852	-0.00855406	-0.0273835	1.0274	-0.275059	0.279328	0.126847	-0.163863	0.349984	-0.145415	-0.198696	-0.00328827	-0.384522	-0.225816	-0.313315	0.640755	-0.119724	0.251905	-0.0039886	-0.375314	0.215981	-0.0247872	-0.0357809	-0.186636	-0.301132	0.560372	2.16686	0.010297	-0.173051	-8.89587e-05	1.01518	2.14251
0.11	0.145434	-0.1261	-0.00184139	-0.0130061	1.02847	-0.273539	0.280286	0.136577	-0.167736	0.363395	-0.131359	-0.208312	-0.00330057	-0.335702	-0.251439	-0.291984	0.71347	-0.181689	0.212374	-0.0040028	-0.36438	0.227511	-0.026881	-0.0346566	-0.186207	-0.300325	0.565493	2.16666	-0.000179964	-0.170637	0.00201461	0.986023	2.13936
0.12	0.137783	-0.134754	0.00603595	0.00102642	1.02953	-0.272127	0.279153	0.145781	-0.172306	0.373342	-0.116466	-0.21648	-0.00331287	-0.284455	-0.275568	-0.267966	0.785318	-0.239035	0.175465	-0.004017	-0.354137	0.238194	-0.0294185	-0.0331048	-0.185914	-0.298469	0.570933	2.16612	-0.00895524	-0.169313	0.00546739	0.955558	2.13688
0.13	0.131063	-0.142546	0.0149031	0.0147304	1.03063	-0.270838	0.275737	0.154141	-0.177512	0.380074	-0.101274	-0.22308	-0.00332516	-0.231842	-0.297337	-0.24181	0.854913	-0.288747	0.142318	-0.00403121	-0.344949	0.247735	-0.0321985	-0.0310516	-0.185846	-0.295479	0.5765	2.16516	-0.0160171	-0.168953	0.00996443	0.924067	2.13539
0.14	0.125474	-0.149186	0.0244514	0.0281281	1.03183	-0.269675	0.269955	0.161326	-0.183236	0.383945	-0.0861329	-0.227856	-0.00333747	-0.178887	-0.31593	-0.21425	0.92104	-0.328128	0.113904	-0.00404542	-0.337094	0.255808	-0.0349476	-0.0284418	-0.18607	-0.291364	0.58202	2.16373	-0.0214758	-0.169363	0.0150336	0.891898	2.13513
0.15	0.1211	-0.154407	0.0342716	0.041247	1.03317	-0.268629	0.26182	0.167063	-0.189293	0.385322	-0.0712515	-0.230497	-0.00334977	-0.126513	-0.330696	-0.186155	0.982702	-0.355172	0.0909522	-0.00405963	-0.330742	0.262103	-0.0373475	-0.025243	-0.18663	-0.286223	0.587356	2.16189	-0.025558	-0.170317	0.0200693	0.859483	2.13623
0.16	0.117907	-0.158013	0.0439001	0.0541168	1.03467	-0.267678	0.251421	0.171181	-0.195434	0.384518	-0.0567559	-0.230729	-0.00336207	-0.075501	-0.341232	-0.158472	1.03913	-0.36888	0.0738698	-0.00407384	-0.325947	0.266367	-0.0390692	-0.0214494	-0.187532	-0.280236	0.592421	2.15977	-0.028588	-0.17158	0.0243916	0.827348	2.13869
0.17	0.115752	-0.1599	0.0528708	0.0667692	1.03635	-0.266792	0.238911	0.173645	-0.201353	0.381763	-0.0427368	-0.228398	-0.00337437	-0.0264541	-0.347437	-0.132155	1.08979	-0.369447	0.0626886	-0.00408805	-0.322653	0.268444	-0.0398082	-0.0170823	-0.188753	-0.273641	0.597181	2.15761	-0.030959	-0.172948	0.0273235	0.796105	2.14238
0.18	0.114403	-0.160076	0.0607662	0.0792365	1.0382	-0.265937	0.224492	0.174559	-0.206715	0.377203	-0.0292797	-0.223516	-0.00338668	0.0202012	-0.349513	-0.108088	1.13429	-0.358251	0.0570433	-0.00410225	-0.320717	0.268286	-0.0393129	-0.0121862	-0.190239	-0.266702	0.601656	2.15571	-0.0330976	-0.174275	0.0282777	0.766424	2.14705
0.19	0.113595	-0.158655	0.0672532	0.0915503	1.04021	-0.265077	0.208404	0.174145	-0.21119	0.370926	-0.0164754	-0.216269	-0.00339898	0.0642074	-0.347924	-0.0870176	1.17244	-0.337642	0.0562031	-0.00411645	-0.319935	0.265952	-0.0374052	-0.00682185	-0.191914	-0.259684	0.6059	2.15437	-0.0354248	-0.17549	0.0268384	0.738999	2.15233
0.2	0.113087	-0.155832	0.0721016	0.103742	1.04234	-0.264177	0.190909	0.172699	-0.214497	0.362995	-0.00441414	-0.206994	-0.00341129	0.105449	-0.343321	-0.0695058	1.20413	-0.310567	0.0591579	-0.00413064	-0.320069	0.261597	-0.0339935	-0.00105684	-0.193693	-0.252825	0.609993	2.15379	-0.0383192	-0.176604	0.0228244	0.714491	2.15778
0.21	0.112682	-0.151858	0.0751955	0.115838	1.04456	-0.26321	0.172274	0.170541	-0.21644	0.353486	0.00683163	-0.196119	-0.00342359	0.143917	-0.336452	-0.0558984	1.22938	-0.280112	0.0647484	-0.00414481	-0.320887	0.255447	-0.0290754	0.00504177	-0.195493	-0.246314	0.614015	2.15407	-0.0420862	-0.177705	0.0163194	0.693469	2.16293
0.22	0.112244	-0.146996	0.0765325	0.127861	1.04684	-0.26216	0.152752	0.167964	-0.216937	0.342518	0.017226	-0.184099	-0.0034359	0.179664	-0.328069	-0.0463191	1.24827	-0.249063	0.0718168	-0.00415898	-0.322187	0.247769	-0.0227312	0.0114133	-0.197247	-0.240282	0.618036	2.15515	-0.0469381	-0.178932	0.0076629	0.676345	2.16737
0.23	0.111696	-0.141499	0.0762112	0.139828	1.04912	-0.261017	0.132573	0.165201	-0.216038	0.330266	0.0267831	-0.171358	-0.00344821	0.212779	-0.318849	-0.0406847	1.26095	-0.219577	0.0793445	-0.00417313	-0.323807	0.238848	-0.0151104	0.0180058	-0.198912	-0.234796	0.622109	2.15687	-0.0529839	-0.180453	-0.00260186	0.663334	2.17084
